<svg width="14" height="14" viewBox="0 0 14 14" fill="none" xmlns="http://www.w3.org/2000/svg">
<path d="M9.28725 7.54875C9.38856 7.278 9.43996 6.99112 9.43895 6.70204C9.43895 6.06017 9.18397 5.44458 8.7301 4.99071C8.27622 4.53684 7.66064 4.28186 7.01877 4.28186C6.73325 4.28219 6.45009 4.33357 6.18265 4.43356L6.75065 5.0192C6.83699 5.00539 6.92428 4.99831 7.01172 4.99803C7.46557 4.99709 7.90135 5.17575 8.22392 5.49502C8.54649 5.81428 8.72963 6.2482 8.73336 6.70204C8.73307 6.78948 8.72599 6.87676 8.71219 6.96311L9.28725 7.54875Z" fill="#C7D2D6"/>
<path d="M12.4977 6.53638C11.3088 4.33846 9.22374 3.00842 6.91646 3.00842C6.28825 3.0099 5.66427 3.11112 5.06781 3.3083L5.63581 3.87983C6.05417 3.77171 6.48435 3.71601 6.91646 3.71401C8.9027 3.71401 10.709 4.82179 11.785 6.68808C11.3903 7.38048 10.867 7.99116 10.2433 8.48734L10.7443 8.98831C11.4661 8.40596 12.0656 7.68656 12.5083 6.87153L12.6 6.70219L12.4977 6.53638Z" fill="#C7D2D6"/>
<path d="M2.11844 2.39102L3.6919 3.96449C2.69734 4.60485 1.8845 5.4906 1.3317 6.53637L1.23997 6.70218L1.3317 6.87152C2.52062 9.06944 4.60564 10.3995 6.91292 10.3995C7.81349 10.3993 8.70236 10.1955 9.51303 9.80325L11.277 11.5672L11.8944 11.038L2.72172 1.86536L2.11844 2.39102ZM5.55819 5.83078L7.90428 8.17686C7.6392 8.34095 7.33404 8.42883 7.02229 8.43088C6.79577 8.43088 6.57149 8.38609 6.36234 8.29909C6.1532 8.21209 5.96332 8.08458 5.80364 7.92392C5.64396 7.76325 5.51763 7.5726 5.43191 7.36292C5.34619 7.15325 5.30278 6.9287 5.30418 6.70218C5.30815 6.39404 5.39597 6.09279 5.55819 5.83078ZM5.04664 5.31922C4.71657 5.7847 4.56187 6.35196 4.60992 6.92056C4.65796 7.48915 4.90566 8.02241 5.30915 8.4259C5.71265 8.82939 6.2459 9.07709 6.8145 9.12514C7.3831 9.17319 7.95035 9.01848 8.41583 8.68842L8.9803 9.25289C8.32685 9.53221 7.62357 9.67623 6.91292 9.67624C4.92669 9.67624 3.12037 8.56847 2.04435 6.70218C2.56074 5.78781 3.30444 5.02224 4.20346 4.47957L5.04664 5.31922Z" fill="#C7D2D6"/>
</svg>
