<svg width="13" height="14" viewBox="0 0 13 14" fill="none" xmlns="http://www.w3.org/2000/svg">
<g clip-path="url(#clip0_241_20)">
<path d="M9.03252 7.74247C9.13383 7.47172 9.18523 7.18485 9.18422 6.89576C9.18422 6.25389 8.92924 5.63831 8.47537 5.18444C8.02149 4.73057 7.40591 4.47559 6.76404 4.47559C6.47852 4.47592 6.19536 4.52729 5.92792 4.62729L6.49592 5.21293C6.58226 5.19911 6.66955 5.19204 6.75699 5.19176C7.21083 5.19081 7.64662 5.36948 7.96919 5.68874C8.29176 6.008 8.4749 6.44193 8.47863 6.89576C8.47834 6.9832 8.47126 7.07049 8.45746 7.15683L9.03252 7.74247Z" fill="#C7D2D6"/>
<path d="M12.2429 6.7301C11.054 4.53219 8.96901 3.20215 6.66173 3.20215C6.03352 3.20362 5.40954 3.30484 4.81308 3.50202L5.38108 4.07355C5.79944 3.96543 6.22962 3.90973 6.66173 3.90774C8.64796 3.90774 10.4543 5.01552 11.5303 6.8818C11.1356 7.5742 10.6123 8.18489 9.98859 8.68106L10.4896 9.18203C11.2114 8.59969 11.8109 7.88028 12.2535 7.06526L12.3453 6.89592L12.2429 6.7301Z" fill="#C7D2D6"/>
<path d="M1.86371 2.58475L3.43717 4.15821C2.44261 4.79858 1.62977 5.68433 1.07697 6.73009L0.985245 6.89591L1.07697 7.06525C2.26589 9.26316 4.35091 10.5932 6.65819 10.5932C7.55876 10.593 8.44763 10.3892 9.2583 9.99698L11.0223 11.761L11.6397 11.2318L2.46699 2.05908L1.86371 2.58475ZM5.30346 6.0245L7.64955 8.37059C7.38447 8.53467 7.07931 8.62256 6.76756 8.6246C6.54104 8.62461 6.31676 8.57982 6.10761 8.49282C5.89847 8.40581 5.70859 8.27831 5.54891 8.11764C5.38923 7.95698 5.2629 7.76632 5.17718 7.55665C5.09146 7.34698 5.04805 7.12242 5.04945 6.89591C5.05342 6.58776 5.14123 6.28652 5.30346 6.0245ZM4.79191 5.51295C4.46184 5.97843 4.30714 6.54568 4.35519 7.11428C4.40323 7.68288 4.65093 8.21613 5.05442 8.61963C5.45792 9.02312 5.99117 9.27082 6.55977 9.31886C7.12837 9.36691 7.69562 9.21221 8.1611 8.88214L8.72557 9.44662C8.07212 9.72594 7.36884 9.86995 6.65819 9.86997C4.67196 9.86997 2.86564 8.76219 1.78962 6.89591C2.30601 5.98154 3.04971 5.21597 3.94873 4.6733L4.79191 5.51295Z" fill="#C7D2D6"/>
</g>
<defs>
<clipPath id="clip0_241_20">
<rect x="0.14563" y="0.54541" width="12.7006" height="12.7006" rx="6.35032" fill="white"/>
</clipPath>
</defs>
</svg>
