<svg width="123" height="123" viewBox="0 0 123 123" fill="none" xmlns="http://www.w3.org/2000/svg">
<rect x="25.8819" width="100" height="100" rx="20" transform="rotate(15 25.8819 0)" fill="#FFE8C8" fill-opacity="0.5"/>
<rect x="11.0001" y="11" width="100" height="100" rx="20" fill="#FFE8C8"/>
<path d="M29.9863 31.0957C28.4875 31.4624 27.2437 32.4829 26.5262 33.9499L26 35.0182V57.7403V80.4624L26.4624 81.467C27.0364 82.6948 28.1367 83.7472 29.3645 84.1936C30.2255 84.5285 30.4966 84.5285 44.8633 84.5285H59.4852L62.1162 87.9089C63.5672 89.7745 64.8747 91.4328 65.0342 91.5763C65.2893 91.8474 65.8314 91.8633 72.082 91.8633H78.8747L79.2415 91.4966C79.5285 91.2096 79.656 90.811 79.8155 89.6948C79.9271 88.9135 80.1344 87.4465 80.2779 86.4419L80.533 84.6082L86.3531 84.5285C91.8861 84.4488 92.205 84.4328 92.9226 84.098C94.0387 83.5877 95.0114 82.5991 95.5376 81.451L96 80.4624V57.7403V35.0182L95.4738 33.9499C94.8998 32.7859 94.1025 31.9886 92.9066 31.3987L92.1731 31.0319L61.3189 31C44.3531 31 30.2574 31.0319 29.9863 31.0957ZM92.0774 33.5034C92.8428 33.8861 93.4647 34.6196 93.6879 35.385C93.7836 35.7836 93.8474 43.3098 93.8474 57.9157V79.8725L93.4009 80.7176C93.082 81.3394 92.795 81.6424 92.2688 81.9294C91.5672 82.2961 91.5034 82.2961 86.2255 82.2961H80.8998L81.0114 81.3713C81.0592 80.877 81.1549 80.303 81.2027 80.0957L81.2825 79.7449H85.795C90.1002 79.7449 90.3075 79.7289 90.7221 79.41L91.1367 79.0911V57.7882C91.1367 38.1754 91.1207 36.4533 90.8656 36.1822C90.6264 35.9112 89.4784 35.8952 60.9841 35.8952H31.3576L31.1185 36.246C30.8952 36.5649 30.8633 38.877 30.8633 57.836V79.0911L31.2779 79.41C31.6925 79.7449 31.8041 79.7449 43.7631 79.7449L55.8178 79.7608L56.615 80.8132C57.0615 81.3873 57.4761 81.9613 57.5399 82.0889C57.6515 82.2643 55.5626 82.2961 43.8907 82.2643L30.1298 82.2164L29.5399 81.8178C29.1891 81.5786 28.7745 81.0843 28.5513 80.6378L28.1526 79.8406V57.7563C28.1526 36.6128 28.1686 35.6242 28.4556 35.0182C28.7745 34.3166 29.2528 33.8383 29.9863 33.4556C30.4169 33.2164 33.4784 33.2005 60.9681 33.1845C90.9294 33.1845 91.4715 33.1845 92.0774 33.5034ZM88.9043 57.7403V77.5125L85.1253 77.4807L81.3303 77.4328L81.2506 73.893L81.1708 70.369L80.6765 69.7472C79.8793 68.7745 79.1139 68.4078 77.9339 68.4556C77.0091 68.5034 76.9453 68.4875 76.9453 68.1526C76.9453 67.9613 76.8656 67.5945 76.754 67.3554C76.1321 65.9203 74.9841 65.1868 73.4852 65.2506C72.6241 65.2984 72.5763 65.2665 72.4647 64.8838C72.2733 64.1663 71.795 63.4807 71.1412 63.0342C70.631 62.6834 70.3121 62.6037 69.3554 62.5558L68.1913 62.492L68.1435 58.713L68.0957 54.918L67.6492 54.2802C66.4852 52.59 64.1253 52.3668 62.6902 53.8178C61.7335 54.7586 61.6378 55.2688 61.6378 59.1595V62.5239H59.5649H57.492V62.1253C57.492 61.5194 56.9339 60.5308 56.344 60.0843C54.7335 58.8725 52.6128 59.3827 51.6879 61.2005C51.5444 61.4875 51.4328 61.8861 51.4328 62.1253V62.5239H49.7745C47.8451 62.5239 47.3986 62.7312 47.3986 63.6401C47.3986 64.549 47.8451 64.7563 49.7585 64.7563H51.385L51.4966 65.3622C51.7198 66.7654 52.9476 67.7859 54.4305 67.7859C55.9453 67.7859 57.205 66.7813 57.4282 65.3463L57.5399 64.7563H59.5809H61.6378V70.2893V75.8223L60.1549 74.3554C58.5604 72.7927 57.6515 72.2506 56.615 72.2506C55.3075 72.2506 53.9203 73.287 53.5057 74.5627C53.2665 75.2643 53.3622 76.3166 53.713 77.0182L53.9522 77.5125H43.5239H33.0957V57.7403V37.9681H61H88.9043V57.7403ZM65.6401 55.3326L66.0228 55.6356L66.0706 66.3668C66.1025 78.262 66.0547 77.672 67.139 77.672C68.1595 77.672 68.1435 77.7198 68.2073 71.2939C68.2392 68.0889 68.3189 65.3463 68.3827 65.2027C68.7016 64.5649 69.8975 64.5649 70.2323 65.2187C70.344 65.426 70.4077 67.5148 70.4077 71.2779C70.4077 76.8269 70.4237 77.0501 70.7267 77.3531C71.0456 77.672 71.7631 77.7677 72.0979 77.5444C72.5763 77.2255 72.6401 76.6674 72.6401 72.4579C72.6401 68.8383 72.672 68.1207 72.8952 67.8178C73.1822 67.3873 73.9954 67.3394 74.426 67.7381C74.697 67.9772 74.713 68.328 74.713 72.41C74.713 76.6356 74.7289 76.8428 75.0478 77.2574C75.4465 77.7677 76.164 77.8155 76.6264 77.3531C76.9134 77.0661 76.9453 76.8269 76.9453 74.1959C76.9453 70.9909 77.041 70.6561 77.9499 70.6561C79.1298 70.672 79.2096 70.959 79.1617 75.2483C79.1298 78.6447 79.082 79.2028 78.3645 84.2096C77.9339 87.1435 77.5831 89.5672 77.5831 89.5991C77.5831 89.6151 75.0159 89.6151 71.8907 89.5991L66.1982 89.5513L60.8884 82.7267C57.3166 78.1344 55.5786 75.7745 55.5786 75.5194C55.5786 75.0889 56.2483 74.4829 56.7426 74.4829C56.9499 74.4829 58.0501 75.4556 59.7244 77.1139C61.5421 78.9157 62.4989 79.7449 62.738 79.7449C62.9294 79.7449 63.2642 79.5695 63.4715 79.3463L63.8702 78.9636V67.3873V55.811L64.2688 55.4283C64.7312 54.9499 65.1458 54.918 65.6401 55.3326ZM55.0683 61.918C55.1959 62.0456 55.2597 62.6674 55.2597 63.6401C55.2597 65.2984 55.1481 65.5535 54.4624 65.5535C53.7768 65.5535 53.6651 65.2984 53.6651 63.6401C53.6651 61.9818 53.7768 61.7267 54.4624 61.7267C54.6856 61.7267 54.9567 61.8064 55.0683 61.918Z" fill="#FB9300"/>
<path d="M49.3121 41.5558C48.5945 41.795 48.0046 42.3053 47.6378 42.9909C47.3986 43.4055 47.3667 44.1709 47.3189 48.3645C47.287 51.6173 47.3189 53.467 47.4465 53.9135C47.6697 54.7426 48.5786 55.7472 49.3121 56.0023C50.5399 56.4009 51.1139 56.1937 55.3554 53.754C57.5399 52.5103 59.5649 51.2984 59.8679 51.0752C60.6014 50.5331 61.0638 49.4488 60.9681 48.4761C60.8246 47.0251 60.4897 46.7381 55.8337 44.0433C50.8269 41.1572 50.6196 41.0775 49.3121 41.5558ZM54.6219 45.9089C58.1139 47.918 58.6879 48.3167 58.7358 48.6675C58.7677 48.9066 58.672 49.1618 58.4966 49.3053C57.8109 49.8953 50.6196 53.9135 50.2528 53.9135C50.0137 53.9135 49.7745 53.7859 49.6788 53.6105C49.5831 53.4192 49.5194 51.5695 49.5194 48.7153C49.5194 44.6811 49.5513 44.0912 49.7904 43.836C49.9339 43.6766 50.1572 43.549 50.3007 43.549C50.4442 43.549 52.3895 44.6174 54.6219 45.9089Z" fill="#FB9300"/>
<path d="M81.5535 49.6561C81.1708 49.8634 80.6446 50.3417 80.3735 50.7085L79.8952 51.3941L79.8473 57.3895C79.8155 61.3918 79.8473 63.5923 79.9749 63.9909C80.7243 66.5741 84.3599 67.0046 85.795 64.6766L86.2733 63.9112L86.3212 58.123C86.353 54.2962 86.3052 52.1116 86.1936 51.6811C85.6674 49.7517 83.3234 48.7312 81.5535 49.6561ZM83.8018 51.8406C84.1048 52.1435 84.1207 52.3668 84.1207 57.7244C84.1207 62.8588 84.1048 63.3212 83.8337 63.6401C83.4829 64.0706 82.7972 64.1025 82.3667 63.7198C82.0637 63.4488 82.0478 63.1936 82.0478 57.7722C82.0478 52.7176 82.0797 52.0798 82.3189 51.8087C82.6537 51.426 83.4032 51.4419 83.8018 51.8406Z" fill="#FB9300"/>
<path d="M37.6401 53.6583C37.0661 53.9135 36.3485 54.6151 35.9977 55.2688C35.6788 55.8747 35.5353 58.6652 35.7904 59.59C36.4442 62.0296 39.1708 62.9226 41.0524 61.3121C42.0091 60.4829 42.2164 59.7495 42.1526 57.4533C42.1048 55.6196 42.0888 55.508 41.6264 54.8383C40.7654 53.6105 38.9636 53.0684 37.6401 53.6583ZM39.6652 55.9385C39.9043 56.1458 39.9522 56.4488 39.9522 57.7244C39.9522 59.3508 39.9043 59.5103 39.3622 59.7973C38.8679 60.0524 38.7084 60.0205 38.2779 59.5741C37.9112 59.2233 37.8793 59.0638 37.8793 57.7882C37.8793 56.1299 38.0866 55.6675 38.8679 55.6675C39.139 55.6675 39.5057 55.7791 39.6652 55.9385Z" fill="#FB9300"/>
</svg>
